<?xml version="1.0" encoding="utf-8"?>
<!-- Generator: Adobe Illustrator 26.0.1, SVG Export Plug-In . SVG Version: 6.00 Build 0)  -->
<svg version="1.1" id="Layer_1" xmlns="http://www.w3.org/2000/svg" xmlns:xlink="http://www.w3.org/1999/xlink" x="0px" y="0px"
	 viewBox="0 0 186 61" style="enable-background:new 0 0 186 61;" xml:space="preserve">
<style type="text/css">
	.st0{filter:url(#Rectangle_979);}
	.st1{fill:#FFFFFF;}
	.st2{fill:#FC5286;}
	.st3{fill:none;stroke:#FFFFFF;stroke-width:3;stroke-linecap:round;stroke-linejoin:round;}
	.st4{font-family:'MyriadPro-Regular';}
	.st5{font-size:12px;}
</style>
<filter  filterUnits="userSpaceOnUse" height="181" id="Rectangle_979" width="306" x="0" y="0">
	<feOffset  dy="10" input="SourceAlpha"></feOffset>
	<feGaussianBlur  result="blur" stdDeviation="20"></feGaussianBlur>
	<feFlood  flood-color="#053888" flood-opacity="0.392"></feFlood>
	<feComposite  in2="blur" operator="in"></feComposite>
	<feComposite  in="SourceGraphic" operator="over"></feComposite>
</filter>
<g id="Group_1008" transform="translate(60 49.942)">
	<g transform="matrix(1, 0, 0, 1, -60, -49.94)" class="st0">
		<path id="Rectangle_979-2_00000060019377272759623760000014539006692449735861_" class="st1" d="M20,0h146c11,0,20,9,20,20v21
			c0,11-9,20-20,20H20C9,61,0,52,0,41V20C0,9,9,0,20,0z"/>
	</g>
	<path id="Rectangle_981" class="st2" d="M-31-36.9h16c5.5,0,10,4.5,10,10v15c0,5.5-4.5,10-10,10h-16c-5.5,0-10-4.5-10-10v-15
		C-41-32.5-36.5-36.9-31-36.9z"/>
	<path id="Icon_feather-star" class="st3" d="M-23.1-28.3l2.9,5.9l6.5,0.9l-4.7,4.6l1.1,6.5l-5.8-3.1l-5.8,3.1l1.1-6.5l-4.7-4.6
		l6.5-0.9L-23.1-28.3z"/>
</g>
<text transform="matrix(1 0 0 1 61.8903 34)" class="st4 st5">Easy to use</text>
</svg>
