<svg xmlns="http://www.w3.org/2000/svg" width="32.519" height="36" viewBox="0 0 32.519 36">
  <path id="Icon_simple-googleplay" data-name="Icon simple-googleplay" d="M1.83,0a1.4,1.4,0,0,0-.09.462V35.306A.872.872,0,0,0,2.016,36L19.139,17.861ZM20.293,19.062,24.72,23.63,18.4,27.23S10.368,31.8,5.938,34.338Zm1.2-1.247,4.749,4.938c.744-.414,6.556-3.738,7.386-4.2.876-.507.787-1.2.043-1.569-.688-.382-6.5-3.712-7.38-4.253l-4.8,5.088Zm-1.2-1.2,4.476-4.753L18.378,8.215S7.964,2.257,4.5.269L20.293,16.615Z" transform="translate(-1.74)" fill="#064ebe"/>
</svg>
