<?xml version="1.0" encoding="utf-8"?>
<!-- Generator: Adobe Illustrator 26.0.1, SVG Export Plug-In . SVG Version: 6.00 Build 0)  -->
<svg version="1.1" id="Layer_1" xmlns="http://www.w3.org/2000/svg" xmlns:xlink="http://www.w3.org/1999/xlink" x="0px" y="0px"
	 viewBox="0 0 185 61" style="enable-background:new 0 0 185 61;" xml:space="preserve">
<style type="text/css">
	.st0{fill:#FFFFFF;}
	.st1{fill:#05BF4C;}
	.st2{fill:none;stroke:#FFFFFF;stroke-width:3;stroke-linecap:round;stroke-linejoin:round;}
	.st3{font-family:'ArialMT';}
	.st4{font-size:12px;}
</style>
<g id="Group_1009" transform="translate(59.859 49.942)">
	<g transform="matrix(1, 0, 0, 1, -59.86, -49.94)">
		<path id="Rectangle_979-2_00000182488001545746329090000009219618859169814408_" class="st0" d="M20,0h145c11,0,20,9,20,20v21
			c0,11-9,20-20,20H20C9,61,0,52,0,41V20C0,9,9,0,20,0z"/>
	</g>
	<path id="Rectangle_981" class="st1" d="M-30.9-36.9h16c5.5,0,10,4.5,10,10v15c0,5.5-4.5,10-10,10h-16c-5.5,0-10-4.5-10-10v-15
		C-40.9-32.5-36.4-36.9-30.9-36.9z"/>
	<g id="Group_857" transform="translate(29.15 23.053)">
		<path id="Icon_feather-check" class="st2" d="M-45.1-50l-10.2,10.2l-4.7-4.7"/>
		<path id="Icon_feather-check-2" class="st2" d="M-45.1-44.9l-10.2,10.2l-4.7-4.7"/>
	</g>
</g>
<text transform="matrix(1 0 0 1 60.6054 33.239)" class="st3 st4">Swift Payout</text>
</svg>
